<svg xmlns="http://www.w3.org/2000/svg" xmlns:xlink="http://www.w3.org/1999/xlink" aria-hidden="true" focusable="false" width="1em" height="1em" style="-ms-transform: rotate(360deg); -webkit-transform: rotate(360deg); transform: rotate(360deg);" preserveAspectRatio="xMidYMid meet" viewBox="0 0 256 256"><g transform="translate(256 0) scale(-1 1)"><path d="M176 18H80a22.025 22.025 0 0 0-22 22v176a22.025 22.025 0 0 0 22 22h96a22.025 22.025 0 0 0 22-22V40a22.025 22.025 0 0 0-22-22zM70 62h116v132H70zm10-32h96a10.012 10.012 0 0 1 10 10v10H70V40a10.012 10.012 0 0 1 10-10zm96 196H80a10.012 10.012 0 0 1-10-10v-10h116v10a10.012 10.012 0 0 1-10 10z" fill="#1e243a"/></g></svg>
