<svg xmlns="http://www.w3.org/2000/svg" xmlns:xlink="http://www.w3.org/1999/xlink" aria-hidden="true" focusable="false" width="1em" height="1em" style="-ms-transform: rotate(360deg); -webkit-transform: rotate(360deg); transform: rotate(360deg);" preserveAspectRatio="xMidYMid meet" viewBox="0 0 16 16"><g transform="translate(16 0) scale(-1 1)"><path fill="#3D87FF" d="M14.5 4H2.38a1 1 0 0 1-1.19-.982v-.019L14 2.5V1.31A1.18 1.18 0 0 0 12.684.001L1.31 1.85A2.004 2.004 0 0 0 0 3.727v10.772a1.5 1.5 0 0 0 1.5 1.5h13a1.5 1.5 0 0 0 1.5-1.5v-9.01l.001-.041a1.45 1.45 0 0 0-1.45-1.45l-.053.001zM13 11a1.5 1.5 0 1 1 .001-3.001A1.5 1.5 0 0 1 13 11z"/></g></svg>
